<?xml version="1.0" encoding="UTF-8"?>
<svg version="1.1" xmlns="http://www.w3.org/2000/svg" width="512" height="512">
<path d="M0 0 C7.14753313 5.30928709 12.21444772 11.55847065 17 19 C17.80542236 18.85925049 18.61084473 18.71850098 19.44067383 18.57348633 C29.24565207 17.00089174 38.77647687 16.63898269 48.6875 16.6875 C49.48091797 16.68965515 50.27433594 16.6918103 51.09179688 16.69403076 C62.94207248 16.7456549 74.45298934 17.09084898 86 20 C87.17127441 20.29003906 87.17127441 20.29003906 88.36621094 20.5859375 C116.12350139 27.6981258 140.75745603 40.55772255 161.82421875 60.01171875 C163.57001374 61.60706821 165.33288102 63.09935732 167.1875 64.5625 C194.85361055 88.53979581 211.29701166 127.36399873 216 163 C216.09643799 163.67369629 216.19287598 164.34739258 216.29223633 165.04150391 C217.39977212 174.02430956 217.10811374 183.09175901 217.0625 192.125 C217.05747515 193.86197788 217.05291398 195.59895716 217.04882812 197.3359375 C217.03790014 201.55732688 217.02068978 205.77864764 217 210 C217.78769775 210.30164063 218.57539551 210.60328125 219.38696289 210.9140625 C227.66004671 214.3522272 232.52134086 223.51154048 236.0390625 231.30078125 C239.76897786 241.67134032 239.49438485 254.92959411 235 265 C234.2498212 266.28313411 233.48008197 267.55511573 232.6875 268.8125 C230.65325726 271.79641998 230.65325726 271.79641998 231.625 274.5 C232.07875 275.325 232.5325 276.15 233 277 C236.36749522 285.7929042 236.31138609 295.57808543 233 304.375 C230.00186101 310.74604536 225.81520533 316.32000902 219.25 319.2109375 C218.5075 319.47132813 217.765 319.73171875 217 320 C217.60328125 320.93199219 218.2065625 321.86398437 218.828125 322.82421875 C228.41894067 337.95981853 232.90803078 352.99380771 229.3046875 370.94140625 C226.03246406 383.46659764 220.07184921 392.88122744 211 402 C210.39671875 402.63808594 209.7934375 403.27617187 209.171875 403.93359375 C205.10811523 407.90017666 200.64550211 410.39577385 195.5625 412.8125 C194.95390137 413.10278076 194.34530273 413.39306152 193.71826172 413.69213867 C184.02827651 418.05096 174.46191854 418.37602411 163.9375 418.625 C162.5813576 418.66326971 161.22523718 418.70232633 159.86914062 418.7421875 C156.57955896 418.83584107 153.28997388 418.9215686 150 419 C150.6290625 419.825 151.258125 420.65 151.90625 421.5 C165.33458454 439.46685845 178.26509435 463.92435133 176 487 C173.91550551 494.8523855 169.05654333 501.48758894 162.07788086 505.66268921 C153.7666781 509.64230252 144.38063067 508.69593376 135.37890625 508.64697266 C133.28530112 508.65375493 131.19170196 508.66266148 129.09811401 508.67352295 C123.43277638 508.69625006 117.76789578 508.68750697 112.10255051 508.67162752 C106.16283725 508.65893447 100.22316212 508.67071809 94.28344727 508.67855835 C84.31031294 508.68764497 74.33736397 508.6756928 64.36425781 508.65185547 C52.84771017 508.62464627 41.33160517 508.63346111 29.81506824 508.6609875 C19.9124184 508.68370559 10.0099015 508.68686539 0.107234 508.67379415 C-5.80072595 508.66601455 -11.7084781 508.66491715 -17.61642456 508.68147659 C-23.17180898 508.69596125 -28.72662484 508.68582617 -34.28194809 508.65700531 C-36.31601901 508.6504159 -38.3501381 508.65225526 -40.38418961 508.66331863 C-61.65047534 508.76828936 -61.65047534 508.76828936 -69.84669495 501.32235146 C-75.39376388 495.61541363 -78.19768809 488.90754463 -78.5625 481 C-78.28715705 472.58237273 -75.71644076 464.8983676 -73 457 C-72.42378906 455.27716797 -72.42378906 455.27716797 -71.8359375 453.51953125 C-67.23441602 440.66970427 -60.06817807 429.89603454 -52 419 C-52.8156543 418.98541748 -53.63130859 418.97083496 -54.47167969 418.95581055 C-57.55846423 418.89399622 -60.64465219 418.81971522 -63.73095703 418.73754883 C-65.69933525 418.6887559 -67.66804034 418.65376562 -69.63671875 418.61914062 C-88.38273555 418.09577467 -102.70573389 412.44008987 -116 399 C-116.82564453 398.22462891 -116.82564453 398.22462891 -117.66796875 397.43359375 C-121.44589111 393.5543866 -123.80086669 388.90273625 -126.25 384.125 C-126.5917627 383.46491943 -126.93352539 382.80483887 -127.28564453 382.12475586 C-133.32636306 369.84617526 -134.12989424 354.4118929 -130.5625 341.25 C-127.84467907 333.59068646 -123.39498012 326.78968082 -119 320 C-119.74121094 319.74476563 -120.48242188 319.48953125 -121.24609375 319.2265625 C-127.84425894 316.28780524 -132.34487588 310.2918389 -135.30859375 303.859375 C-138.47834151 295.3350816 -138.1650104 285.21673771 -134.65625 276.8671875 C-133.55507611 273.7340856 -133.83783558 271.4015215 -135.05859375 268.37890625 C-135.51363281 267.44949219 -135.96867187 266.52007812 -136.4375 265.5625 C-141.33748826 255.52520212 -141.6784318 243.30345479 -138.4375 232.625 C-134.90810691 223.49811332 -129.08292603 215.61159463 -121 210 C-120.34 210 -119.68 210 -119 210 C-119.01571045 208.89825439 -119.0314209 207.79650879 -119.04760742 206.66137695 C-119.5957053 164.46739534 -119.5957053 164.46739534 -116 149 C-115.80664062 148.16130371 -115.61328125 147.32260742 -115.4140625 146.45849609 C-111.93906911 131.99276357 -106.89075874 117.34200297 -99.50439453 104.37426758 C-98.13477798 101.93522129 -96.90898082 99.64605493 -96 97 C-96.75985639 93.68352887 -96.75985639 93.68352887 -99 91.0625 C-106.07644806 80.56153265 -107.50663773 69.71849204 -105.56640625 57.203125 C-103.34302827 48.30961309 -97.56515451 41.34123458 -90.06640625 36.21875 C-83.60739972 32.40927923 -77.70080489 31.74276032 -70.3125 31.6875 C-69.58748291 31.68186035 -68.86246582 31.6762207 -68.11547852 31.67041016 C-63.71463375 31.73001072 -60.08967009 32.38345324 -56 34 C-55.979375 32.80375 -55.95875 31.6075 -55.9375 30.375 C-54.75763831 20.12798202 -48.81653786 10.70306552 -41.33984375 3.83984375 C-29.92761953 -5.13370818 -12.82706795 -8.07952837 0 0 Z " fill="#FEEDE4" transform="translate(207,4)"/>
<path d="M0 0 C7.14753313 5.30928709 12.21444772 11.55847065 17 19 C17.80542236 18.85925049 18.61084473 18.71850098 19.44067383 18.57348633 C29.24565207 17.00089174 38.77647687 16.63898269 48.6875 16.6875 C49.48091797 16.68965515 50.27433594 16.6918103 51.09179688 16.69403076 C62.94207248 16.7456549 74.45298934 17.09084898 86 20 C87.17127441 20.29003906 87.17127441 20.29003906 88.36621094 20.5859375 C116.12350139 27.6981258 140.75745603 40.55772255 161.82421875 60.01171875 C163.57001374 61.60706821 165.33288102 63.09935732 167.1875 64.5625 C194.85361055 88.53979581 211.29701166 127.36399873 216 163 C216.09643799 163.67369629 216.19287598 164.34739258 216.29223633 165.04150391 C217.39977212 174.02430956 217.10811374 183.09175901 217.0625 192.125 C217.05747515 193.86197788 217.05291398 195.59895716 217.04882812 197.3359375 C217.03790014 201.55732688 217.02068978 205.77864764 217 210 C217.78769775 210.30164063 218.57539551 210.60328125 219.38696289 210.9140625 C227.66004671 214.3522272 232.52134086 223.51154048 236.0390625 231.30078125 C239.76897786 241.67134032 239.49438485 254.92959411 235 265 C234.2498212 266.28313411 233.48008197 267.55511573 232.6875 268.8125 C230.65325726 271.79641998 230.65325726 271.79641998 231.625 274.5 C232.07875 275.325 232.5325 276.15 233 277 C236.36749522 285.7929042 236.31138609 295.57808543 233 304.375 C230.00186101 310.74604536 225.81520533 316.32000902 219.25 319.2109375 C218.5075 319.47132813 217.765 319.73171875 217 320 C217.60328125 320.93199219 218.2065625 321.86398437 218.828125 322.82421875 C228.41894067 337.95981853 232.90803078 352.99380771 229.3046875 370.94140625 C226.03246406 383.46659764 220.07184921 392.88122744 211 402 C210.39671875 402.63808594 209.7934375 403.27617187 209.171875 403.93359375 C205.10811523 407.90017666 200.64550211 410.39577385 195.5625 412.8125 C194.95390137 413.10278076 194.34530273 413.39306152 193.71826172 413.69213867 C184.02827651 418.05096 174.46191854 418.37602411 163.9375 418.625 C162.5813576 418.66326971 161.22523718 418.70232633 159.86914062 418.7421875 C156.57955896 418.83584107 153.28997388 418.9215686 150 419 C150.6290625 419.825 151.258125 420.65 151.90625 421.5 C165.33458454 439.46685845 178.26509435 463.92435133 176 487 C173.91550551 494.8523855 169.05654333 501.48758894 162.07788086 505.66268921 C153.7666781 509.64230252 144.38063067 508.69593376 135.37890625 508.64697266 C133.28530112 508.65375493 131.19170196 508.66266148 129.09811401 508.67352295 C123.43277638 508.69625006 117.76789578 508.68750697 112.10255051 508.67162752 C106.16283725 508.65893447 100.22316212 508.67071809 94.28344727 508.67855835 C84.31031294 508.68764497 74.33736397 508.6756928 64.36425781 508.65185547 C52.84771017 508.62464627 41.33160517 508.63346111 29.81506824 508.6609875 C19.9124184 508.68370559 10.0099015 508.68686539 0.107234 508.67379415 C-5.80072595 508.66601455 -11.7084781 508.66491715 -17.61642456 508.68147659 C-23.17180898 508.69596125 -28.72662484 508.68582617 -34.28194809 508.65700531 C-36.31601901 508.6504159 -38.3501381 508.65225526 -40.38418961 508.66331863 C-61.65047534 508.76828936 -61.65047534 508.76828936 -69.84669495 501.32235146 C-75.39376388 495.61541363 -78.19768809 488.90754463 -78.5625 481 C-78.28715705 472.58237273 -75.71644076 464.8983676 -73 457 C-72.42378906 455.27716797 -72.42378906 455.27716797 -71.8359375 453.51953125 C-67.23441602 440.66970427 -60.06817807 429.89603454 -52 419 C-52.8156543 418.98541748 -53.63130859 418.97083496 -54.47167969 418.95581055 C-57.55846423 418.89399622 -60.64465219 418.81971522 -63.73095703 418.73754883 C-65.69933525 418.6887559 -67.66804034 418.65376562 -69.63671875 418.61914062 C-88.38273555 418.09577467 -102.70573389 412.44008987 -116 399 C-116.82564453 398.22462891 -116.82564453 398.22462891 -117.66796875 397.43359375 C-121.44589111 393.5543866 -123.80086669 388.90273625 -126.25 384.125 C-126.5917627 383.46491943 -126.93352539 382.80483887 -127.28564453 382.12475586 C-133.32636306 369.84617526 -134.12989424 354.4118929 -130.5625 341.25 C-127.84467907 333.59068646 -123.39498012 326.78968082 -119 320 C-119.74121094 319.74476563 -120.48242188 319.48953125 -121.24609375 319.2265625 C-127.84425894 316.28780524 -132.34487588 310.2918389 -135.30859375 303.859375 C-138.47834151 295.3350816 -138.1650104 285.21673771 -134.65625 276.8671875 C-133.55507611 273.7340856 -133.83783558 271.4015215 -135.05859375 268.37890625 C-135.51363281 267.44949219 -135.96867187 266.52007812 -136.4375 265.5625 C-141.33748826 255.52520212 -141.6784318 243.30345479 -138.4375 232.625 C-134.90810691 223.49811332 -129.08292603 215.61159463 -121 210 C-120.34 210 -119.68 210 -119 210 C-119.01571045 208.89825439 -119.0314209 207.79650879 -119.04760742 206.66137695 C-119.5957053 164.46739534 -119.5957053 164.46739534 -116 149 C-115.80664062 148.16130371 -115.61328125 147.32260742 -115.4140625 146.45849609 C-111.93906911 131.99276357 -106.89075874 117.34200297 -99.50439453 104.37426758 C-98.13477798 101.93522129 -96.90898082 99.64605493 -96 97 C-96.75985639 93.68352887 -96.75985639 93.68352887 -99 91.0625 C-106.07644806 80.56153265 -107.50663773 69.71849204 -105.56640625 57.203125 C-103.34302827 48.30961309 -97.56515451 41.34123458 -90.06640625 36.21875 C-83.60739972 32.40927923 -77.70080489 31.74276032 -70.3125 31.6875 C-69.58748291 31.68186035 -68.86246582 31.6762207 -68.11547852 31.67041016 C-63.71463375 31.73001072 -60.08967009 32.38345324 -56 34 C-55.979375 32.80375 -55.95875 31.6075 -55.9375 30.375 C-54.75763831 20.12798202 -48.81653786 10.70306552 -41.33984375 3.83984375 C-29.92761953 -5.13370818 -12.82706795 -8.07952837 0 0 Z M-35.68359375 21.0859375 C-40.59308585 28.22436815 -41.50750356 34.5327004 -41.49731445 43.06005859 C-41.55323569 46.59798201 -41.70628332 48.60817207 -43.859375 51.48046875 C-46.86298119 53.61259067 -48.36409509 53.55936999 -52 53 C-54.08666689 52.10690657 -56.06681638 51.08944864 -58.0703125 50.0234375 C-64.41291479 46.65954722 -71.24194885 45.67178077 -78.2109375 47.6171875 C-83.61766187 49.95802985 -87.73552648 53.50410624 -90 59 C-91.27077615 67.76835545 -90.67472813 76.34113035 -86 84 C-83.91716225 86.5869392 -81.79796277 89.07108771 -79.51171875 91.48046875 C-78 94 -78 94 -78.046875 97.4375 C-79.0543129 101.2030056 -80.36929492 103.60638612 -82.5625 106.8125 C-96.14839879 127.64338584 -104.19755377 154.80911245 -104.09765625 179.68359375 C-104.0962413 180.38396255 -104.09482635 181.08433136 -104.09336853 181.80592346 C-104.08782477 184.01649466 -104.07528326 186.22696004 -104.0625 188.4375 C-104.05747771 189.94726415 -104.05291609 191.45702991 -104.04882812 192.96679688 C-104.03787387 196.64456493 -104.0206489 200.32227212 -104 204 C-77.38242936 205.02118465 -52.62781396 200.77199424 -29.33618164 187.40136719 C-24.85494395 184.95192038 -21.91564759 184.59552926 -17 186 C-14.66956442 189.49565336 -14.41236756 190.8865729 -15 195 C-19.03355937 198.92151605 -23.8961386 201.0982642 -28.9375 203.4375 C-29.78650879 203.83219482 -30.63551758 204.22688965 -31.51025391 204.63354492 C-48.49396005 212.423486 -66.2627016 217.12237478 -85 218 C-88.3941247 227.0509992 -88.21448391 236.28103792 -88.24023438 245.82373047 C-88.2498543 247.96753048 -88.28091155 250.11033363 -88.3125 252.25390625 C-88.41524559 265.49105808 -86.51323329 278.1850113 -82 290.6875 C-81.70585205 291.51000244 -81.4117041 292.33250488 -81.10864258 293.17993164 C-75.41040734 308.46228398 -67.64781497 322.63255422 -57 335 C-56.26136719 335.8765625 -55.52273437 336.753125 -54.76171875 337.65625 C-34.20059695 361.32162642 -5.9405406 377.65443749 25 383 C26.65902344 383.30744141 26.65902344 383.30744141 28.3515625 383.62109375 C63.45032165 389.47088694 99.33709781 379.74500474 128.453125 359.8359375 C130.01218026 358.71207865 131.5500303 357.55703667 133.046875 356.3515625 C136.21240973 353.81633336 137.6742599 353 141.8125 353 C145 354 145 354 147 357 C147.24161947 360.08064818 147.25396929 361.27943185 146 364 C140.4981757 369.95021086 133.06592349 373.94330868 126.09130859 377.94287109 C123.0455121 379.6977656 120.30095402 381.30847814 118 384 C119.00130853 386.05131292 120.02712918 388.090667 121.0625 390.125 C121.63097656 391.26195312 122.19945312 392.39890625 122.78515625 393.5703125 C125.14689047 397.56258876 128.02903833 400.57281363 132 403 C135.17465586 403.79698099 138.18958086 403.7745693 141.44921875 403.69140625 C142.34308792 403.69003159 143.23695709 403.68865692 144.15791321 403.6872406 C146.04314161 403.67821349 147.92835031 403.65467463 149.81323242 403.61743164 C152.66212577 403.56298494 155.50806438 403.55590124 158.35742188 403.55664062 C174.75299589 403.46183064 189.15535755 401.46517366 201.75 390 C211.03849654 380.16119756 215.60198318 367.0170079 215.375 353.625 C214.42541169 344.44564633 209.60001049 336.89846353 204.55078125 329.375 C203 327 203 327 202.15625 324.7890625 C201.07801663 322.72837833 201.07801663 322.72837833 198.35546875 322.0234375 C197.31003906 321.80945313 196.26460938 321.59546875 195.1875 321.375 C191.26042082 320.54567893 187.688815 319.59553181 184 318 C183.66790527 318.53890869 183.33581055 319.07781738 182.99365234 319.63305664 C181.46028004 322.11341798 179.91772231 324.58794424 178.375 327.0625 C177.85292969 327.91005859 177.33085937 328.75761719 176.79296875 329.63085938 C168.27055687 343.25619689 168.27055687 343.25619689 162.375 345.1875 C159 345 159 345 156.5 343.5 C154.37474839 339.95791399 155.09496346 337.96693586 156 334 C157.6796875 331.4296875 157.6796875 331.4296875 159.875 328.875 C173.33957377 311.77542149 181.00259801 291.18574425 185 270 C185.26695679 268.62545654 185.26695679 268.62545654 185.53930664 267.22314453 C186.05870844 263.58925872 186.1619601 260.02537955 186.16796875 256.36328125 C186.17129715 255.64319382 186.17462555 254.92310638 186.17805481 254.18119812 C186.18309509 252.66255324 186.18546404 251.14389738 186.18530273 249.62524414 C186.18747714 247.33655861 186.20563014 245.04836535 186.22460938 242.75976562 C186.25527736 234.7314101 186.17462053 226.79749617 184 219 C182.12772713 217.12772713 179.38000255 217.6838196 176.86865234 217.50732422 C146.75431226 215.26685775 117.39446767 201.84650047 94 183 C93.17628906 182.36707031 92.35257813 181.73414063 91.50390625 181.08203125 C84.28167259 175.47757793 77.62627123 169.28583486 71 163 C69.86691406 161.93072266 69.86691406 161.93072266 68.7109375 160.83984375 C63.3278676 155.61762255 58.6633178 149.86420979 54 144 C53.25234375 143.06542969 52.5046875 142.13085938 51.734375 141.16796875 C51.16203125 140.45253906 50.5896875 139.73710937 50 139 C46.42141585 140.19286138 45.79247172 141.27670438 43.5625 144.25 C38.41921226 150.86144538 32.75970949 156.92834872 27 163 C25.93072266 164.13308594 25.93072266 164.13308594 24.83984375 165.2890625 C18.8239685 171.49023165 12.19278818 177.20480788 5 182 C1.4375 181.8125 1.4375 181.8125 -2 181 C-4.36564787 177.45152819 -4.65639873 176.17941381 -4 172 C-2.03939931 169.7315611 -0.26579181 167.96702923 2 166.0625 C2.60013916 165.53309814 3.20027832 165.00369629 3.81860352 164.45825195 C6.23413513 162.33525539 8.68814478 160.26148296 11.15234375 158.1953125 C23.38085038 147.86663951 33.36747617 135.40129287 42.80175781 122.54956055 C44 121 44 121 46 119 C50.07680179 119.08552731 52.27457219 119.34250522 55.3359375 122.1171875 C56.00882813 123.02726562 56.68171875 123.93734375 57.375 124.875 C58.13941406 125.8753125 58.90382813 126.875625 59.69140625 127.90625 C60.83416016 129.43765625 60.83416016 129.43765625 62 131 C89.71989137 166.01459963 128.58449148 198.42044343 174.63134766 203.81835938 C183.38884562 204.48993003 192.22726497 204.21426394 201 204 C201.0753878 199.02363219 201.12917163 194.04761239 201.16479492 189.07080078 C201.17967916 187.38552038 201.19999321 185.70027724 201.22631836 184.01513672 C201.83800639 143.78765344 185.74100175 106.7191753 158 78 C157.13761719 77.07445313 156.27523438 76.14890625 155.38671875 75.1953125 C129.72033742 48.35017884 91.97092129 32.91815748 55.08984375 31.7109375 C43.27946598 31.49753531 32.01888353 31.89151806 20.453125 34.3125 C15.97500511 35.20407138 11.51778461 35.99527868 7 35 C5.1875 33.125 5.1875 33.125 4 30 C0.44393169 21.71184078 -3.58653709 16.19255505 -11.4375 11.5625 C-21.94255615 9.25651207 -29.12711184 12.68935304 -35.68359375 21.0859375 Z " fill="#020101" transform="translate(207,4)"/>
<path d="M0 0 C8.94098821 3.93125163 13.3217013 11.45589911 16.9375 20.16015625 C17.69041242 22.31506325 17.69041242 22.31506325 18.8828125 23.3828125 C24.11074711 24.01210093 29.11987108 23.3985988 34.24145508 22.30615234 C71.7034683 14.44089857 112.37200514 24.09548557 144.2956543 44.52172852 C150.95963511 48.95394833 157.02785935 53.93622574 162.8828125 59.3828125 C163.49012207 59.94629395 164.09743164 60.50977539 164.72314453 61.09033203 C186.36292414 81.40488911 201.5865988 106.53731648 208.8828125 135.3828125 C209.31400391 136.99542969 209.31400391 136.99542969 209.75390625 138.640625 C212.00717206 147.24400354 213.04007237 155.38832882 212.98046875 164.2578125 C212.97834633 165.47271362 212.97834633 165.47271362 212.97618103 166.7121582 C212.97063633 169.26908244 212.95809457 171.82591526 212.9453125 174.3828125 C212.94029034 176.12890497 212.93572869 177.87499884 212.93164062 179.62109375 C212.9206851 183.87503459 212.90345944 188.12890811 212.8828125 192.3828125 C170.534841 193.80830092 134.22609514 178.6801962 102.8828125 150.3828125 C102.06538574 149.65578125 102.06538574 149.65578125 101.23144531 148.9140625 C90.00469309 138.91737182 80.27179666 128.2308522 71.34765625 116.13208008 C70.56455078 115.08056763 70.56455078 115.08056763 69.765625 114.0078125 C69.30559082 113.38132812 68.84555664 112.75484375 68.37158203 112.109375 C65.99156194 109.3492074 63.97680001 107.54866972 60.33203125 106.99609375 C57.29383588 107.47580881 56.60003382 108.19553142 54.6953125 110.5703125 C53.79232422 111.67439453 53.79232422 111.67439453 52.87109375 112.80078125 C51.48083237 114.60620909 50.10429645 116.42225197 48.73828125 118.24609375 C38.32087592 132.11869156 26.41605826 145.45515116 12.65234375 156.109375 C8.79101495 159.06170599 8.79101495 159.06170599 7.3828125 163.5703125 C7.8245072 166.45005459 7.8245072 166.45005459 8.8828125 169.3828125 C7.8309375 169.9603125 6.7790625 170.5378125 5.6953125 171.1328125 C2.5041643 172.9489131 -0.31208285 175.00272371 -3.1171875 177.3828125 C-3.6328125 176.7021875 -4.1484375 176.0215625 -4.6796875 175.3203125 C-7.01771202 173.02522056 -7.01771202 173.02522056 -10.32421875 173.53515625 C-14.39548383 174.44500643 -17.6355692 176.00807104 -21.2421875 178.0078125 C-43.89586656 189.85433038 -66.86013882 193.0827023 -92.1171875 192.3828125 C-92.57011667 173.91375461 -92.47084374 156.45826028 -88.1171875 138.3828125 C-87.82443151 137.04711329 -87.53269293 135.7111905 -87.2421875 134.375 C-83.25165088 117.59336831 -75.66126669 101.69893128 -66.1171875 87.3828125 C-65.62582999 84.10887603 -65.82426382 82.80584548 -67.7265625 80.05859375 C-68.43296875 79.27871094 -69.139375 78.49882813 -69.8671875 77.6953125 C-76.87410075 69.24726106 -78.95898351 61.91930742 -78.625 50.88671875 C-77.87386407 45.70388084 -76.11840574 42.70861142 -72.1171875 39.3828125 C-67.33835954 35.81911387 -62.69962151 34.74617429 -56.78125 34.984375 C-50.78352998 35.88139471 -45.15166987 38.02649092 -40.1171875 41.3828125 C-36.64199922 41.82645356 -34.85110183 41.89853608 -31.94921875 39.859375 C-29.43626839 36.46233762 -29.69523134 33.43535299 -29.7421875 29.3828125 C-29.50973583 20.27343021 -27.39461326 13.04610968 -21.08203125 6.1640625 C-14.66201812 0.30805053 -8.70749093 -2.53834606 0 0 Z " fill="#E2A57A" transform="translate(195.1171875,15.6171875)"/>
<path d="M0 0 C7.82798101 3.44187492 12.25974633 9.49592491 15.3828125 17.2578125 C16.83167037 21.0005733 16.83167037 21.0005733 19.74609375 23.52734375 C21.87390279 24.18064717 21.87390279 24.18064717 24.8828125 24.3828125 C24.8828125 24.7128125 24.8828125 25.0428125 24.8828125 25.3828125 C23.2328125 25.3828125 21.5828125 25.3828125 19.8828125 25.3828125 C17.38830849 48.10061686 18.02711165 70.98518911 32.16259766 90.11474609 C38.58668864 98.08664076 46.38061561 104.71468124 54.8828125 110.3828125 C49.49553007 117.55835778 44.03806329 124.53233248 37.9453125 131.1328125 C36.13224156 133.11070808 34.41242236 135.13478067 32.6953125 137.1953125 C25.73097194 145.20348865 17.50823621 152.38152134 9.21679688 158.9831543 C7.5617499 160.45371646 7.5617499 160.45371646 7.3828125 163.5703125 C7.8245072 166.45005459 7.8245072 166.45005459 8.8828125 169.3828125 C7.8309375 169.9603125 6.7790625 170.5378125 5.6953125 171.1328125 C2.5041643 172.9489131 -0.31208285 175.00272371 -3.1171875 177.3828125 C-3.6328125 176.7021875 -4.1484375 176.0215625 -4.6796875 175.3203125 C-7.01771202 173.02522056 -7.01771202 173.02522056 -10.32421875 173.53515625 C-14.39548383 174.44500643 -17.6355692 176.00807104 -21.2421875 178.0078125 C-43.89586656 189.85433038 -66.86013882 193.0827023 -92.1171875 192.3828125 C-92.57011667 173.91375461 -92.47084374 156.45826028 -88.1171875 138.3828125 C-87.82443151 137.04711329 -87.53269293 135.7111905 -87.2421875 134.375 C-83.25165088 117.59336831 -75.66126669 101.69893128 -66.1171875 87.3828125 C-65.62582999 84.10887603 -65.82426382 82.80584548 -67.7265625 80.05859375 C-68.43296875 79.27871094 -69.139375 78.49882813 -69.8671875 77.6953125 C-76.87410075 69.24726106 -78.95898351 61.91930742 -78.625 50.88671875 C-77.87386407 45.70388084 -76.11840574 42.70861142 -72.1171875 39.3828125 C-67.33835954 35.81911387 -62.69962151 34.74617429 -56.78125 34.984375 C-50.78352998 35.88139471 -45.15166987 38.02649092 -40.1171875 41.3828125 C-36.64199922 41.82645356 -34.85110183 41.89853608 -31.94921875 39.859375 C-29.43626839 36.46233762 -29.69523134 33.43535299 -29.7421875 29.3828125 C-29.50973583 20.27343021 -27.39461326 13.04610968 -21.08203125 6.1640625 C-14.66201812 0.30805053 -8.70749093 -2.53834606 0 0 Z " fill="#D89567" transform="translate(195.1171875,15.6171875)"/>
<path d="M0 0 C-0.27714844 0.9178125 -0.55429688 1.835625 -0.83984375 2.78125 C-1.20207031 4.0084375 -1.56429687 5.235625 -1.9375 6.5 C-2.29714844 7.7065625 -2.65679687 8.913125 -3.02734375 10.15625 C-4.85345723 17.37269844 -5.21556494 24.59492707 -5.5625 32 C-5.62727539 33.30517578 -5.62727539 33.30517578 -5.69335938 34.63671875 C-5.79824218 36.75768219 -5.89950075 38.87882433 -6 41 C-4.89591797 40.75443359 -4.89591797 40.75443359 -3.76953125 40.50390625 C-1.31716144 40.05770638 0.83120482 39.89544415 3.3125 39.9375 C5.1378125 39.9684375 5.1378125 39.9684375 7 40 C6.67 39.01 6.34 38.02 6 37 C5.44 30.84 5.44 30.84 7.625 27.5625 C10.73543691 25.51615993 12.33677666 25.40192272 16 26 C16.804375 26.680625 17.60875 27.36125 18.4375 28.0625 C20.94664965 30.37366209 20.94664965 30.37366209 24.625 29.9375 C27.94204133 29.31423849 27.94204133 29.31423849 29.5625 27.4375 C31 26 31 26 33.875 25.5 C37 26 37 26 39.9375 28.0625 C42 31 42 31 42.1875 34.5 C40.49321304 39.49368787 37.59475234 41.70781333 33.046875 43.97265625 C31.38561828 44.69861193 29.69471534 45.35600817 28 46 C28.40992188 46.45890625 28.81984375 46.9178125 29.2421875 47.390625 C29.78101563 48.00421875 30.31984375 48.6178125 30.875 49.25 C31.40867187 49.85328125 31.94234375 50.4565625 32.4921875 51.078125 C37.04932891 56.88670939 36.57920821 62.85346177 36 70 C34.75 73.5 34.75 73.5 33 76 C32.46375 76.845625 31.9275 77.69125 31.375 78.5625 C25.15817875 84.94292181 15.58292042 88.87446688 6.69921875 89.07421875 C5.36310547 89.03748047 5.36310547 89.03748047 4 89 C20.87065718 126.7581375 47.34885924 156.62843994 86.359375 172.13671875 C89.94637978 173.30939339 93.23860173 173.78299625 97 174 C97 174.33 97 174.66 97 175 C57.47753641 176.79647562 22.38020289 162.4451401 -6.9140625 136.41015625 C-23.07484057 120.92468447 -34.47287054 101.6871449 -42 80.6875 C-42.26659424 79.94918945 -42.53318848 79.21087891 -42.80786133 78.45019531 C-46.98355915 65.99470069 -48.49340001 53.47540051 -48.33618164 40.40795898 C-48.31238343 38.30218544 -48.315684 36.19767325 -48.32226562 34.09179688 C-48.27408142 11.27408142 -48.27408142 11.27408142 -45 8 C-42.45784526 7.66788952 -39.92476598 7.38400807 -37.375 7.125 C-25.91053075 5.85439701 -14.80668136 4.09961742 -4.07421875 -0.328125 C-2 -1 -2 -1 0 0 Z " fill="#FDDCCD" transform="translate(167,214)"/>
<path d="M0 0 C1.08667969 0.41572266 1.08667969 0.41572266 2.1953125 0.83984375 C3.16210938 1.20207031 4.12890625 1.56429688 5.125 1.9375 C6.55199219 2.47697266 6.55199219 2.47697266 8.0078125 3.02734375 C10.9847958 4.11209948 10.9847958 4.11209948 14.1796875 4.3203125 C17 5 17 5 18.6875 7.15234375 C19.120625 8.07144531 19.55375 8.99054688 20 9.9375 C22.34035799 14.67980434 24.88005376 19.14341846 27.703125 23.61328125 C32.0428563 31.59995542 32.18264163 40.44964782 30.3125 49.2265625 C26.42633774 61.75943579 19.66426443 72.65344394 7.8828125 78.9465332 C-1.25188713 83.60576908 -9.61093067 85.30164891 -19.78515625 85.44140625 C-20.68568222 85.45517807 -21.58620819 85.46894989 -22.51402283 85.48313904 C-24.40390014 85.50625139 -26.29385611 85.5235971 -28.18383789 85.53540039 C-31.05960952 85.56247279 -33.93178262 85.6375529 -36.80664062 85.71289062 C-52.18344732 85.93558159 -52.18344732 85.93558159 -57.08984375 81.8984375 C-59.92333521 78.58139495 -61.84135422 75.08471601 -63.5 71.0625 C-63.9846875 69.91910156 -64.469375 68.77570313 -64.96875 67.59765625 C-65.47921875 66.31181641 -65.47921875 66.31181641 -66 65 C-65.50709473 64.70867187 -65.01418945 64.41734375 -64.50634766 64.1171875 C-47.84320204 55.72224316 -47.84320204 55.72224316 -36.8125 42.1875 C-36.86266282 38.97872241 -36.86266282 38.97872241 -38 36 C-37.45730469 35.52949219 -36.91460937 35.05898438 -36.35546875 34.57421875 C-35.64003906 33.95160156 -34.92460937 33.32898438 -34.1875 32.6875 C-33.47980469 32.07261719 -32.77210938 31.45773437 -32.04296875 30.82421875 C-30.00909378 29.08210844 -30.00909378 29.08210844 -28.44921875 27.234375 C-27.97097656 26.82703125 -27.49273437 26.4196875 -27 26 C-25.88625 26.185625 -24.7725 26.37125 -23.625 26.5625 C-20.04302834 27.38114189 -20.04302834 27.38114189 -17.5859375 25.48046875 C-14.48753967 22.50844062 -12.30094083 19.35331802 -10 15.75 C-9.56574707 15.08411865 -9.13149414 14.4182373 -8.68408203 13.73217773 C-5.73193785 9.19097133 -2.82821955 4.61942527 0 0 Z " fill="#D79567" transform="translate(391,322)"/>
<path d="M0 0 C3.08756909 2.84189155 4.98860913 5.54865819 6.9375 9.25 C19.08921539 30.54146714 37.91693898 47.95835518 59.0637207 60.0456543 C62.06407866 61.7679105 64.73047232 63.35773967 67 66 C65.99869147 68.05131292 64.97287082 70.090667 63.9375 72.125 C63.36902344 73.26195312 62.80054688 74.39890625 62.21484375 75.5703125 C59.84351995 79.56857752 57.00441993 82.59751626 53 85 C49.60112174 85.81748587 46.34233559 85.7967776 42.859375 85.7265625 C41.89654602 85.72755951 40.93371704 85.72855652 39.94171143 85.72958374 C37.91108928 85.72491947 35.88045374 85.70556326 33.85009766 85.67236328 C30.7726872 85.62534661 27.69877043 85.6312293 24.62109375 85.64453125 C5.72898868 85.59000221 5.72898868 85.59000221 -3 81 C-3.98355469 80.53078125 -4.96710938 80.0615625 -5.98046875 79.578125 C-18.12632261 72.2691156 -24.7079356 62.90922396 -29.16796875 49.484375 C-32.07404391 37.31433253 -29.4539211 27.46461884 -23.1796875 16.94921875 C-21.99370416 15.07596054 -20.78630604 13.21595934 -19.55078125 11.375 C-17.95236314 9.11188473 -17.95236314 9.11188473 -17.16015625 6.7890625 C-16 5 -16 5 -13.3203125 4.0234375 C-12.26585938 3.80945313 -11.21140625 3.59546875 -10.125 3.375 C-6.43987594 2.6053795 -3.28916846 1.85909522 0 0 Z " fill="#D79467" transform="translate(120,322)"/>
<path d="M0 0 C0.495 0.680625 0.99 1.36125 1.5 2.0625 C3.74336033 4.94837226 3.74336033 4.94837226 6.046875 6.43359375 C8.46084133 8.14990669 10.23824025 9.60722533 12 12 C12.41654073 15.31930891 12.24617896 18.37179431 12.03125 21.70703125 C11.97285012 27.8609181 14.56356839 32.69144919 17.75 37.8125 C23.23483899 43.14498235 28.64909876 45.31605924 36 47 C36.67545765 51.18613079 37.33879077 55.37409696 38 59.5625 C38.19078125 60.74392578 38.3815625 61.92535156 38.578125 63.14257812 C38.84882813 64.86831055 38.84882813 64.86831055 39.125 66.62890625 C39.29257813 67.68150635 39.46015625 68.73410645 39.6328125 69.81860352 C40.02750111 73.23827593 40.02391163 76.56039744 40 80 C30.97682722 80.0928022 21.95381948 80.1638165 12.93027306 80.20724869 C8.73996462 80.22809718 4.54998341 80.25636416 0.35986328 80.30175781 C-3.68612242 80.34531419 -7.73179395 80.3691577 -11.77799606 80.37950897 C-13.31934935 80.38688286 -14.86068602 80.40128257 -16.40190506 80.42292023 C-18.56599936 80.45208611 -20.72880625 80.45595076 -22.89306641 80.45410156 C-24.12328522 80.46298401 -25.35350403 80.47186646 -26.6210022 80.48101807 C-30.66687073 79.90506745 -32.82315397 78.52010815 -36 76 C-39.40202237 71.05873408 -38.45218147 64.90218291 -37.5703125 59.2421875 C-32.54880677 36.49042698 -18.25550924 14.38471358 0 0 Z " fill="#AE8AD5" transform="translate(183,417)"/>
<path d="M0 0 C19.42639784 12.86049242 32.15932285 35.95615399 38 58 C38.19207031 58.680625 38.38414062 59.36125 38.58203125 60.0625 C39.76066514 65.52607394 39.75755735 70.4848853 37.25 75.5 C34.22141477 78.8650947 32.40907055 79.89201994 27.86151123 80.24050903 C26.6268512 80.23606781 25.39219116 80.23162659 24.12011719 80.22705078 C23.43678314 80.22734283 22.7534491 80.22763489 22.04940796 80.22793579 C19.79843294 80.22654624 17.54779196 80.21100302 15.296875 80.1953125 C13.73317648 80.19158103 12.16947562 80.18873469 10.60577393 80.18673706 C6.49578362 80.17911114 2.3859353 80.15947164 -1.72399902 80.1373291 C-5.92014648 80.11684822 -10.11631694 80.10773055 -14.3125 80.09765625 C-22.54173173 80.07622472 -30.77084819 80.04210139 -39 80 C-38.85131338 77.78158472 -38.69980145 75.5633587 -38.54711914 73.34521484 C-38.46305313 72.10992035 -38.37898712 70.87462585 -38.29237366 69.60189819 C-37.91032772 64.89528206 -37.23181065 60.27684804 -36.4375 55.625 C-36.29892578 54.78195312 -36.16035156 53.93890625 -36.01757812 53.0703125 C-35.6840166 51.04593909 -35.34288652 49.02281483 -35 47 C-34.35933594 46.84144531 -33.71867187 46.68289063 -33.05859375 46.51953125 C-23.09965739 43.83314156 -18.33864826 40.38177198 -13.1640625 31.40234375 C-10.96285519 26.8595837 -11.05390949 23.70958499 -11.4375 18.6875 C-11.51807773 12.6911738 -11.51807773 12.6911738 -9.328125 9.76953125 C-7.1875 8 -7.1875 8 -4.98046875 6.43359375 C-2.53834413 4.66582307 -1.30593199 2.69348472 0 0 Z " fill="#BA9ADB" transform="translate(328,417)"/>
<path d="M0 0 C1.33333333 1 2.66666667 2 4 3 C7.54213985 3.50007794 7.54213985 3.50007794 11 3 C11.495 2.505 11.99 2.01 12.5 1.5 C14 0 14 0 17.4375 -0.4375 C21 0 21 0 23.4375 1.5625 C25.56667558 4.88401391 25.42255137 7.12661246 25 11 C24.34 11.99 23.68 12.98 23 14 C23.67804688 13.95359375 24.35609375 13.9071875 25.0546875 13.859375 C33.80667064 13.51996291 40.77341771 15.27347307 47.8125 20.625 C52.6814208 25.18240217 55.52963489 31.02102099 56.5625 37.5625 C55.45973001 44.30164993 52.62987186 49.97420542 48 55 C45.08984375 56.765625 45.08984375 56.765625 41.9375 58.25 C40.89464844 58.75015625 39.85179687 59.2503125 38.77734375 59.765625 C30.8052482 63.30877858 20.79417592 63.48001021 12.45703125 60.90625 C5.72972872 57.7003365 -0.76498779 53.52323899 -4.1484375 46.67578125 C-6.03706819 40.74132242 -6.34860646 33.94128587 -3.7265625 28.22265625 C-1.70977813 25.18764173 0.4255708 22.5744292 3 20 C1.98679687 19.54560547 1.98679687 19.54560547 0.953125 19.08203125 C-8.51201583 14.63669777 -8.51201583 14.63669777 -11 10 C-11.59807728 6.33677666 -11.48384007 4.73543691 -9.4375 1.625 C-6.08716465 -0.6085569 -3.9518567 -0.49398209 0 0 Z " fill="#FEA1AC" transform="translate(314,240)"/>
<path d="M0 0 C0.804375 0.680625 1.60875 1.36125 2.4375 2.0625 C4.94664965 4.37366209 4.94664965 4.37366209 8.625 3.9375 C11.94204133 3.31423849 11.94204133 3.31423849 13.5625 1.4375 C15 0 15 0 17.875 -0.5 C21 0 21 0 23.9375 2.0625 C26 5 26 5 26.1875 8.5 C24.49321304 13.49368787 21.59475234 15.70781333 17.046875 17.97265625 C15.38561828 18.69861193 13.69471534 19.35600817 12 20 C12.40992188 20.45890625 12.81984375 20.9178125 13.2421875 21.390625 C13.78101563 22.00421875 14.31984375 22.6178125 14.875 23.25 C15.40867188 23.85328125 15.94234375 24.4565625 16.4921875 25.078125 C21.04932891 30.88670939 20.57920821 36.85346177 20 44 C18.75 47.5 18.75 47.5 17 50 C16.46375 50.845625 15.9275 51.69125 15.375 52.5625 C12.0606714 55.96404778 8.25635523 57.95436553 4 60 C3.25105469 60.37125 2.50210938 60.7425 1.73046875 61.125 C-5.94812663 63.58566576 -17.52147851 63.21401184 -25.01171875 60.1015625 C-33.59979513 55.34353197 -37.93170148 50.20489556 -41 41 C-41.81465084 34.34701812 -39.69615474 29.41031346 -36 24 C-29.77040104 17.77040104 -21.55704839 13.96834781 -12.75 13.9375 C-10.89375 13.9684375 -10.89375 13.9684375 -9 14 C-9.33 13.01 -9.66 12.02 -10 11 C-10.56 4.84 -10.56 4.84 -8.375 1.5625 C-5.26456309 -0.48384007 -3.66322334 -0.59807728 0 0 Z " fill="#FEA1AC" transform="translate(183,240)"/>
<path d="M0 0 C2.24353987 2.24353987 2.80167078 3.85419177 3.875 6.8125 C6.78396496 14.20169566 10.77845866 18.63702732 18 22 C20.65226503 22.76167287 23.30802637 23.38332403 26 24 C26.67545765 28.18613079 27.33879077 32.37409696 28 36.5625 C28.19078125 37.74392578 28.3815625 38.92535156 28.578125 40.14257812 C28.75859375 41.29306641 28.9390625 42.44355469 29.125 43.62890625 C29.29257813 44.68150635 29.46015625 45.73410645 29.6328125 46.81860352 C30 50 30 50 30 57 C14.16 57 -1.68 57 -18 57 C-18 49.10445104 -18 49.10445104 -17.30078125 45.65234375 C-17.14649658 44.88970215 -16.99221191 44.12706055 -16.83325195 43.34130859 C-13.41544448 27.56459392 -7.81796764 14.06893523 0 0 Z " fill="#BB9ADB" transform="translate(193,440)"/>
<path d="M0 0 C0.50789062 0.39832031 1.01578125 0.79664063 1.5390625 1.20703125 C2.22742188 1.73683594 2.91578125 2.26664062 3.625 2.8125 C4.29789063 3.33457031 4.97078125 3.85664063 5.6640625 4.39453125 C13.30216934 9.64413311 19.91530032 9.86247149 29 9 C35.03850148 7.41361402 39.4651565 4.18600938 44 0 C43.30160201 11.41519476 41.58755491 22.68004328 40 34 C28.12 34 16.24 34 4 34 C3.34 29.50375 2.68 25.0075 2 20.375 C1.79117188 18.96782715 1.58234375 17.5606543 1.3671875 16.11083984 C1.20476562 14.98887207 1.04234375 13.8669043 0.875 12.7109375 C0.70742187 11.56931152 0.53984375 10.42768555 0.3671875 9.25146484 C0.01517875 6.1344086 -0.06640559 3.13351385 0 0 Z " fill="#A0D0FA" transform="translate(234,463)"/>
<path d="M0 0 C1.9140625 1.3515625 1.9140625 1.3515625 3.875 3 C7.56285439 6.01020223 10.08196144 6.79666357 14.8203125 6.46875 C19.31552044 5.50203862 22.75093649 3.24906351 26 0 C29.89201406 -0.43244601 32.13230302 -0.57846465 35.4375 1.625 C37.51114192 4.77693571 37.66859841 6.28556438 37 10 C33.22095931 16.47835546 26.969429 19.63119985 20 22 C10.11008839 23.668714 2.2405009 21.61328055 -6 16 C-9.2289105 13.34889454 -10.80488908 11.08394956 -11.5625 6.875 C-11 4 -11 4 -9.4375 1.625 C-5.94740709 -0.7017286 -4.13674184 -0.68945697 0 0 Z " fill="#050404" transform="translate(243,249)"/>
<path d="M0 0 C-0.06566162 0.69512695 -0.13132324 1.39025391 -0.19897461 2.10644531 C-0.93354424 10.31689666 -1.30023439 18.51228005 -1.5625 26.75 C-1.60568359 28.03132813 -1.64886719 29.31265625 -1.69335938 30.6328125 C-1.79821334 33.75513066 -1.90038018 36.87751121 -2 40 C-2.88042969 40.13277344 -3.76085937 40.26554687 -4.66796875 40.40234375 C-5.82941406 40.57894531 -6.99085937 40.75554687 -8.1875 40.9375 C-9.33605469 41.11152344 -10.48460938 41.28554688 -11.66796875 41.46484375 C-14.46325212 41.91379313 -17.22933586 42.42082162 -20 43 C-24.13851929 34.31649969 -25.70600521 27.12869006 -22.4375 17.875 C-18.66709834 9.50654753 -13.47745011 4.70364104 -5.234375 0.8125 C-3 0 -3 0 0 0 Z " fill="#F5C4B6" transform="translate(106,223)"/>
<path d="M0 0 C6.39051228 0.28981915 10.77519555 1.2094556 16 5 C19.7078841 9.78121897 21.426588 13.68574492 21.34765625 19.80859375 C20.5125716 25.07244194 17.15192412 28.95523161 13.3125 32.4375 C8.40221758 35.75525839 3.81189595 35.49045535 -2 35 C-5.6875 33.5 -5.6875 33.5 -8 32 C-7.32560101 25.88825912 -5.73966003 20.20026447 -4 14.3125 C-3.45783783 12.45457161 -2.91615265 10.59650394 -2.375 8.73828125 C-2.01535156 7.51685425 -2.01535156 7.51685425 -1.6484375 6.27075195 C-1.05406549 4.18933101 -0.51111371 2.10322086 0 0 Z " fill="#F0F0F0" transform="translate(406,277)"/>
<path d="M0 0 C0.9619614 3.47817369 1.9188924 6.95771304 2.875 10.4375 C3.14441406 11.41138672 3.41382812 12.38527344 3.69140625 13.38867188 C5.29379632 19.23153321 6.7376252 25.07419206 8 31 C2.62630859 35.26189319 -2.29400743 35.75324721 -9 35 C-14.40364705 32.29817648 -19.00489961 27.81904281 -21 22 C-21.62574439 15.74255612 -20.77276952 11.13272133 -17 6 C-11.65816917 1.09522806 -7.26616766 -0.1370975 0 0 Z " fill="#F0F0F0" transform="translate(106,277)"/>
<path d="M0 0 C8.53868286 1.96784077 14.54227899 4.89943144 19.5703125 12.31640625 C23.50666667 19.14316905 24.86285669 25.11102459 24 33 C22.92197421 36.46474665 21.5601485 39.72647413 20 43 C11 41 11 41 2 39 C1.97494385 38.24493164 1.9498877 37.48986328 1.92407227 36.71191406 C1.80659976 33.22449906 1.68457221 29.73725691 1.5625 26.25 C1.52318359 25.06277344 1.48386719 23.87554687 1.44335938 22.65234375 C1.17428135 15.07676256 0.70703036 7.54744068 0 0 Z " fill="#F6D6C8" transform="translate(406,223)"/>
<path d="M0 0 C13.2 0 26.4 0 40 0 C41 10 41 10 39.33984375 12.76171875 C32.80527383 18 32.80527383 18 29.1875 18 C28.135625 17.67 27.08375 17.34 26 17 C24.00177431 16.90603088 22.00042793 16.8700789 20 16.875 C18.95199219 16.87242187 17.90398437 16.86984375 16.82421875 16.8671875 C13.89345037 16.88509838 13.89345037 16.88509838 10.8125 18 C6.38130134 18 4.01532872 15.45131229 0.66015625 12.76171875 C-1 10 -1 10 0 0 Z " fill="#F7C7B8" transform="translate(236,403)"/>
<path d="M0 0 C1.33333333 1 2.66666667 2 4 3 C7.54213985 3.50007794 7.54213985 3.50007794 11 3 C11.495 2.505 11.99 2.01 12.5 1.5 C14 0 14 0 17.4375 -0.4375 C21 0 21 0 23.4375 1.5625 C25.67771577 5.0572366 25.77317483 6.92325997 25 11 C21.33358367 15.76301819 15.86445061 18.877921 10 20 C2.31458736 20.5223096 -3.23513561 17.99455923 -9 13 C-11.32749345 9.50875983 -11.50299316 8.10777749 -11 4 C-8.04627097 -0.48966812 -5.14336369 -0.64292046 0 0 Z " fill="#060505" transform="translate(314,240)"/>
<path d="M0 0 C0.804375 0.680625 1.60875 1.36125 2.4375 2.0625 C4.94664965 4.37366209 4.94664965 4.37366209 8.625 3.9375 C11.94204133 3.31423849 11.94204133 3.31423849 13.5625 1.4375 C15 0 15 0 17.875 -0.5 C21 0 21 0 23.9375 2.0625 C26 5 26 5 26.1875 8.5 C24.74112295 12.76300604 22.82042451 14.82259731 19 17 C13.23489696 19.6052825 7.16477593 21.48684899 0.96484375 19.2734375 C-3.44079892 17.24766535 -7.06723667 14.94090073 -10 11 C-10.63534983 6.97611774 -10.64970619 4.97455929 -8.375 1.5625 C-5.26456309 -0.48384007 -3.66322334 -0.59807728 0 0 Z " fill="#060404" transform="translate(183,240)"/>
<path d="M0 0 C3.8026029 2.0050088 5.61790841 3.42686262 8 7 C8.66624845 11.07463524 8.94496094 15.24356703 6.94921875 18.953125 C4.55845406 21.85871513 2.60292854 23.79819245 -1.171875 24.2734375 C-8.98876369 24.58137554 -8.98876369 24.58137554 -12.5625 21.625 C-16.3057723 17.59378368 -16.39037018 14.90519941 -16.359375 9.55078125 C-15.78039966 5.44131496 -14.00085071 3.78650423 -11 1 C-7.53081128 -0.73459436 -3.79303468 -0.47173877 0 0 Z " fill="#F3F3F3" transform="translate(260,434)"/>
<path d="M0 0 C3.21877104 1.65536796 5.28043944 3.98607376 7.375 6.9375 C8.25688519 9.84772112 8.36405994 11.96616714 8 15 C5.86648329 18.8860483 3.77857815 21.67732562 0 24 C-2.5078125 24.328125 -2.5078125 24.328125 -5.125 24.25 C-5.99382812 24.23453125 -6.86265625 24.2190625 -7.7578125 24.203125 C-10 24 -10 24 -12 23 C-12.30859375 20.92578125 -12.30859375 20.92578125 -12.4375 18.3125 C-12.70323372 14.73020508 -13.04233022 12.91533956 -14.6875 9.625 C-16 7 -16 7 -15.4375 4.8125 C-11.16908034 -0.56942044 -6.53826414 -1.1137737 0 0 Z " fill="#E9E9E9" transform="translate(295,425)"/>
<path d="M0 0 C5.64028777 2.92086331 5.64028777 2.92086331 7 7 C6.54625 7.845625 6.0925 8.69125 5.625 9.5625 C3.76469273 13.49776538 3.52049467 16.62997173 3.30859375 20.92578125 C3.20675781 21.61027344 3.10492188 22.29476563 3 23 C-0.72916397 24.86458199 -4.93961304 24.56048286 -9 24 C-12.22531565 22.3611201 -14.28267527 20.01077575 -16.375 17.0625 C-17.25688519 14.15227888 -17.36405994 12.03383286 -17 9 C-12.78207577 1.3173523 -8.69564472 -1.38408186 0 0 Z " fill="#EAEAEA" transform="translate(226,425)"/>
<path d="M0 0 C2.50465773 2.16619047 3.78612358 3.82692024 4.38671875 7.12109375 C4.58912098 11.25987045 4.13761694 13.71457227 2.3125 17.5 C-0.309803 20.33492216 -1.2359832 20.72077027 -5 21 C-7.24609375 20.0390625 -7.24609375 20.0390625 -9.4375 18.625 C-13.01969876 16.45415167 -15.80812589 15.52398426 -20 15 C-21.52491998 11.95016004 -21.23562548 9.3576631 -21 6 C-18.64570837 2.66612549 -15.41174902 1.91115416 -11.625 0.75 C-10.50351562 0.39421875 -9.38203125 0.0384375 -8.2265625 -0.328125 C-4.96475772 -1.00733859 -3.13695887 -1.03283409 0 0 Z " fill="#DBDBDB" transform="translate(312,395)"/>
<path d="M0 0 C13.57045144 2.84541724 13.57045144 2.84541724 19 5 C20.49297212 7.98594424 20.11755228 10.70853624 20 14 C19.67 14.66 19.34 15.32 19 16 C17.14453125 16.4921875 17.14453125 16.4921875 14.8125 16.875 C11.33273434 17.55330614 9.79828007 18.13577303 6.75 20.1875 C4 22 4 22 1.375 22.125 C-2.21721271 20.42342556 -3.2812019 18.56491459 -5 15 C-5.75652348 11.07728569 -5.94889953 7.60557741 -3.87109375 4.08984375 C-2.5 2.4375 -2.5 2.4375 0 0 Z " fill="#DDDDDD" transform="translate(201,394)"/>
</svg>
